<?xml version="1.0" encoding="UTF-8"?>
<svg id="Calque_1" data-name="Calque 1" xmlns="http://www.w3.org/2000/svg" xmlns:xlink="http://www.w3.org/1999/xlink" viewBox="0 0 365.83 90.24">
  <defs>
    <style>
      .cls-1 {
        fill: url(#Dégradé_sans_nom_21);
      }

      .cls-2 {
        fill: url(#Dégradé_sans_nom_21-2);
      }

      .cls-3 {
        fill: url(#Dégradé_sans_nom_21-4);
      }

      .cls-4 {
        fill: url(#Dégradé_sans_nom_21-3);
      }

      .cls-5 {
        fill: url(#Dégradé_sans_nom_21-6);
      }

      .cls-6 {
        fill: url(#Dégradé_sans_nom_21-5);
      }

      .cls-7 {
        fill: url(#Dégradé_sans_nom_21-8);
      }

      .cls-8 {
        fill: url(#Dégradé_sans_nom_21-7);
      }
    </style>
    <linearGradient id="Dégradé_sans_nom_21" data-name="Dégradé sans nom 21" x1="178.32" y1="54.31" x2="219.68" y2="54.31" gradientUnits="userSpaceOnUse">
      <stop offset="0" stop-color="#9bafda"/>
      <stop offset="1" stop-color="#e5c9d3"/>
    </linearGradient>
    <linearGradient id="Dégradé_sans_nom_21-2" data-name="Dégradé sans nom 21" x1="315.91" y1="54.62" x2="357.27" y2="54.62" xlink:href="#Dégradé_sans_nom_21"/>
    <linearGradient id="Dégradé_sans_nom_21-3" data-name="Dégradé sans nom 21" x1="4.76" y1="43.55" x2="43.79" y2="43.55" xlink:href="#Dégradé_sans_nom_21"/>
    <linearGradient id="Dégradé_sans_nom_21-4" data-name="Dégradé sans nom 21" x1="44.9" y1="43.59" x2="88.52" y2="43.59" xlink:href="#Dégradé_sans_nom_21"/>
    <linearGradient id="Dégradé_sans_nom_21-5" data-name="Dégradé sans nom 21" x1="92.11" y1="43.59" x2="129.84" y2="43.59" xlink:href="#Dégradé_sans_nom_21"/>
    <linearGradient id="Dégradé_sans_nom_21-6" data-name="Dégradé sans nom 21" x1="132.75" y1="35.76" x2="176.38" y2="35.76" xlink:href="#Dégradé_sans_nom_21"/>
    <linearGradient id="Dégradé_sans_nom_21-7" data-name="Dégradé sans nom 21" x1="223.14" y1="37.31" x2="266.77" y2="37.31" xlink:href="#Dégradé_sans_nom_21"/>
    <linearGradient id="Dégradé_sans_nom_21-8" data-name="Dégradé sans nom 21" x1="270.22" y1="45.1" x2="313.85" y2="45.1" xlink:href="#Dégradé_sans_nom_21"/>
  </defs>
  <path class="cls-1" d="M193.26,69.79l1-2.44-13.45-33.87c-.83-1.95-1.24-3.36-1.24-4.24,0-.93.24-1.8.72-2.6s1.14-1.44,1.98-1.92c.84-.48,1.71-.72,2.62-.72,1.57,0,2.76.5,3.56,1.5s1.51,2.44,2.12,4.3l9.25,26.91,8.77-25.02c.69-2.03,1.32-3.62,1.88-4.76.56-1.15,1.15-1.92,1.78-2.32.63-.4,1.51-.6,2.66-.6.83,0,1.62.22,2.38.66.76.44,1.35,1.03,1.76,1.78.41.75.62,1.54.62,2.36-.11.51-.28,1.23-.52,2.16-.24.93-.53,1.88-.88,2.84l-14.25,37.32c-1.23,3.28-2.43,5.86-3.6,7.73-1.17,1.87-2.73,3.3-4.66,4.3-1.94,1-4.54,1.5-7.83,1.5s-5.61-.35-7.21-1.04c-1.6-.69-2.4-1.96-2.4-3.8,0-1.25.38-2.22,1.14-2.9.76-.68,1.89-1.02,3.38-1.02.59,0,1.16.08,1.72.24.69.16,1.29.24,1.8.24,1.25,0,2.24-.19,2.96-.56.72-.37,1.37-1.02,1.94-1.94.57-.92,1.23-2.28,1.98-4.06Z"/>
  <path class="cls-2" d="M330.84,70.09l1-2.44-13.45-33.87c-.83-1.95-1.24-3.36-1.24-4.24,0-.93.24-1.8.72-2.6s1.14-1.44,1.98-1.92c.84-.48,1.71-.72,2.62-.72,1.57,0,2.76.5,3.56,1.5s1.51,2.44,2.12,4.3l9.25,26.91,8.77-25.02c.69-2.03,1.32-3.62,1.88-4.76.56-1.15,1.15-1.92,1.78-2.32.63-.4,1.51-.6,2.66-.6.83,0,1.62.22,2.38.66.76.44,1.35,1.03,1.76,1.78.41.75.62,1.54.62,2.36-.11.51-.28,1.23-.52,2.16-.24.93-.53,1.88-.88,2.84l-14.25,37.32c-1.23,3.28-2.43,5.86-3.6,7.73-1.17,1.87-2.73,3.3-4.66,4.3-1.94,1-4.54,1.5-7.83,1.5s-5.61-.35-7.21-1.04c-1.6-.69-2.4-1.96-2.4-3.8,0-1.25.38-2.22,1.14-2.9.76-.68,1.89-1.02,3.38-1.02.59,0,1.16.08,1.72.24.69.16,1.29.24,1.8.24,1.25,0,2.24-.19,2.96-.56.72-.37,1.37-1.02,1.94-1.94.57-.92,1.23-2.28,1.98-4.06Z"/>
  <path class="cls-4" d="M4.76,43.55c0-12.14,9.18-21.73,21.89-21.73,6.89,0,12.71,2.95,15.5,6.31,1.07,1.23,1.64,2.71,1.64,3.85,0,3.2-2.46,5.41-5.66,5.41-2.3,0-3.44-1.23-4.92-2.46-1.48-1.23-3.44-2.46-6.56-2.46-5.82,0-10.33,4.92-10.33,11.07s4.51,11.07,10.33,11.07c2.87,0,5-1.15,6.48-2.38s2.71-2.62,5-2.62c3.2,0,5.66,2.3,5.66,5.49,0,1.15-.57,2.54-1.64,3.77-2.79,3.36-8.45,6.4-15.5,6.4-12.71,0-21.89-9.59-21.89-21.73Z"/>
  <path class="cls-3" d="M44.9,43.59c0-12.14,8.69-21.73,20.25-21.73,4.51,0,8.69,1.56,12.05,4.1.74-2.38,2.95-4.1,5.58-4.1,3.2,0,5.74,2.54,5.74,5.74v31.98c0,3.2-2.54,5.74-5.74,5.74-2.62,0-4.84-1.72-5.58-4.1-3.36,2.62-7.54,4.1-12.05,4.1-11.56,0-20.25-9.59-20.25-21.73ZM77.04,43.59c0-6.31-4.51-11.07-10.25-11.07s-10.33,4.76-10.33,11.07,4.51,11.07,10.33,11.07,10.25-4.67,10.25-11.07Z"/>
  <path class="cls-6" d="M92.11,41.13c0-11.56,8.28-19.27,18.86-19.27s18.86,7.71,18.86,19.27v18.45c0,3.2-2.54,5.74-5.74,5.74s-5.74-2.54-5.74-5.74v-18.86c0-5.33-3.28-8.2-7.38-8.2s-7.38,2.87-7.38,8.2v18.86c0,3.2-2.54,5.74-5.74,5.74s-5.74-2.54-5.74-5.74v-18.45Z"/>
  <path class="cls-5" d="M132.75,43.55c0-12.14,8.69-21.73,20.25-21.73,4.43,0,8.53,1.48,11.89,3.94v-13.78c0-3.2,2.54-5.74,5.74-5.74s5.74,2.54,5.74,5.74v47.56c0,3.2-2.54,5.74-5.74,5.74-2.62,0-4.84-1.72-5.58-4.1-3.36,2.62-7.54,4.1-12.05,4.1-11.56,0-20.25-9.59-20.25-21.73ZM164.9,43.55c0-6.31-4.51-11.07-10.25-11.07s-10.33,4.76-10.33,11.07,4.51,11.07,10.33,11.07,10.25-4.67,10.25-11.07Z"/>
  <path class="cls-8" d="M234.38,62.73c-.66,2.38-2.87,4.1-5.49,4.1-3.2,0-5.74-2.54-5.74-5.74V13.53c0-3.2,2.54-5.74,5.74-5.74s5.74,2.54,5.74,5.74v13.78c3.28-2.46,7.38-3.94,11.89-3.94,11.56,0,20.25,9.59,20.25,21.73s-8.69,21.73-20.25,21.73c-4.59,0-8.77-1.48-12.14-4.1ZM255.2,45.1c0-6.31-4.51-11.07-10.33-11.07s-10.09,4.59-10.25,10.66v.9c.16,6.15,4.59,10.58,10.25,10.58s10.33-4.67,10.33-11.07Z"/>
  <path class="cls-7" d="M270.22,45.1c0-12.14,8.69-21.73,20.25-21.73,4.51,0,8.69,1.56,12.05,4.1.74-2.38,2.95-4.1,5.58-4.1,3.2,0,5.74,2.54,5.74,5.74v31.98c0,3.2-2.54,5.74-5.74,5.74-2.62,0-4.84-1.72-5.58-4.1-3.36,2.62-7.54,4.1-12.05,4.1-11.56,0-20.25-9.59-20.25-21.73ZM302.37,45.1c0-6.31-4.51-11.07-10.25-11.07s-10.33,4.76-10.33,11.07,4.51,11.07,10.33,11.07,10.25-4.67,10.25-11.07Z"/>
</svg>